# xmcd
#
# Track frame offsets:
#     150
#     61098
#     95095
#     119415
#     143203
#
# Disc length: 2658 seconds
#
# Revision: 0
# Processed by: cddbd v1.5.2PL0 Copyright (c) Steve Scherf et al.
# Submitted via: gnudb v1.0.1
#
DISCID=430a6005
DTITLE=Pink Floyd / Wish You Were Here
DYEAR=
DGENRE=art rock
TTITLE0=Shine On You Crazy Diamond, Parts I–V
TTITLE1=Welcome to the Machine
TTITLE2=Have a Cigar
TTITLE3=Wish You Were Here
TTITLE4=Shine On You Crazy Diamond, Parts VI–IX
EXTD=
EXTT0=
EXTT1=
EXTT2=
EXTT3=
EXTT4=
PLAYORDER=
.
